#N canvas -8 -8 1920 997 12;
#X obj 49 82 metro;
#X floatatom 81 39 5 0 0 0 - - -;
#X obj 49 27 tgl 15 0 empty empty empty 17 7 0 10 -262144 -1 -1 0 1
;
#X obj 49 117 f;
#X obj 94 117 + 1;
#X obj 49 156 mod 16;
#X obj 49 194 hradio 15 1 0 16 empty empty empty 0 -8 0 10 -262144
-1 -1 0;
#X obj 67 270 vsl 15 128 60 72 0 0 empty empty empty 0 -9 0 10 -262144
-1 -1 0 1;
#X floatatom 67 406 5 0 0 0 - - -;
#X obj 49 442 f;
#X obj 110 270 vsl 15 128 60 72 0 0 empty empty empty 0 -9 0 10 -262144
-1 -1 0 1;
#X floatatom 110 406 5 0 0 0 - - -;
#X obj 92 442 f;
#X obj 155 271 vsl 15 128 60 72 0 0 empty empty empty 0 -9 0 10 -262144
-1 -1 0 1;
#X floatatom 155 407 5 0 0 0 - - -;
#X obj 137 443 f;
#X obj 198 271 vsl 15 128 60 72 0 0 empty empty empty 0 -9 0 10 -262144
-1 -1 0 1;
#X floatatom 198 407 5 0 0 0 - - -;
#X obj 180 443 f;
#X obj 243 271 vsl 15 128 60 72 0 0 empty empty empty 0 -9 0 10 -262144
-1 -1 0 1;
#X floatatom 243 407 5 0 0 0 - - -;
#X obj 225 443 f;
#X obj 286 271 vsl 15 128 60 72 0 0 empty empty empty 0 -9 0 10 -262144
-1 -1 0 1;
#X floatatom 286 407 5 0 0 0 - - -;
#X obj 268 443 f;
#X obj 331 272 vsl 15 128 60 72 0 0 empty empty empty 0 -9 0 10 -262144
-1 -1 0 1;
#X floatatom 331 408 5 0 0 0 - - -;
#X obj 313 444 f;
#X obj 374 272 vsl 15 128 60 72 0 0 empty empty empty 0 -9 0 10 -262144
-1 -1 0 1;
#X floatatom 374 408 5 0 0 0 - - -;
#X obj 356 444 f;
#X obj 419 272 vsl 15 128 60 72 0 0 empty empty empty 0 -9 0 10 -262144
-1 -1 0 1;
#X floatatom 419 408 5 0 0 0 - - -;
#X obj 401 444 f;
#X obj 462 272 vsl 15 128 60 72 0 0 empty empty empty 0 -9 0 10 -262144
-1 -1 0 1;
#X floatatom 462 408 5 0 0 0 - - -;
#X obj 444 444 f;
#X obj 507 273 vsl 15 128 60 72 0 0 empty empty empty 0 -9 0 10 -262144
-1 -1 0 1;
#X floatatom 507 409 5 0 0 0 - - -;
#X obj 489 445 f;
#X obj 550 273 vsl 15 128 60 72 0 0 empty empty empty 0 -9 0 10 -262144
-1 -1 0 1;
#X floatatom 550 409 5 0 0 0 - - -;
#X obj 532 445 f;
#X obj 595 273 vsl 15 128 60 72 0 0 empty empty empty 0 -9 0 10 -262144
-1 -1 0 1;
#X floatatom 595 409 5 0 0 0 - - -;
#X obj 577 445 f;
#X obj 638 273 vsl 15 128 60 72 0 0 empty empty empty 0 -9 0 10 -262144
-1 -1 0 1;
#X floatatom 638 409 5 0 0 0 - - -;
#X obj 620 445 f;
#X obj 683 274 vsl 15 128 60 72 0 0 empty empty empty 0 -9 0 10 -262144
-1 -1 0 1;
#X floatatom 683 410 5 0 0 0 - - -;
#X obj 665 446 f;
#X obj 726 274 vsl 15 128 60 72 0 0 empty empty empty 0 -9 0 10 -262144
-262144 -262144 0 1;
#X floatatom 726 410 5 0 0 0 - - -;
#X obj 708 446 f;
#X obj 49 235 select 0 1 2 3 4 5 6 7 8 9 10 11 12 13 14 15;
#X obj 50 662 mtof;
#X obj 52 891 *~;
#X obj 52 951 dac~;
#X obj 50 709 phasor~;
#X obj 213 782 line~;
#X obj 213 647 bng 15 250 50 0 empty empty empty 17 7 0 10 -262144
-1 -1;
#X floatatom 294 687 5 0 0 0 - - -;
#X obj 213 718 pack 0.25 50;
#X obj 50 757 *~ 1;
#X obj 51 837 bp~ 440 5;
#X floatatom 81 807 5 0 0 0 - - -;
#X text 124 808 bp freq - makes phasor less harsh;
#X text 235 645 TODO: fix amplitude envelope;
#X obj 50 632 + 0;
#X obj 68 589 r midi_offset;
#X obj 909 52 hsl 128 15 -12 12 0 0 empty empty MIDI_note_offset -2
-8 0 10 -262144 -1 -1 6300 1;
#X floatatom 906 89 5 0 0 0 - - -;
#X obj 906 129 s midi_offset;
#X floatatom 49 499 5 0 0 0 - - -;
#X floatatom 1065 89 5 0 0 0 - - -;
#X obj 1178 170 t b;
#X obj 1178 228 random 3;
#X floatatom 1231 190 5 0 12 0 - - -;
#X floatatom 1178 264 5 0 0 0 - - -;
#X obj 1178 140 change;
#X obj 1065 425 + 0;
#X obj 1065 51 r sequence_note;
#X floatatom 1065 464 5 0 0 0 - - -;
#X obj 1065 676 s rand_note;
#X obj 49 522 s sequence_note;
#X obj 50 558 r rand_note;
#X obj 1286 334 sel 0;
#X floatatom 1286 416 5 0 0 0 - - -;
#X text 1273 189 range of note 'stumble';
#X obj 1065 604 - 0;
#X floatatom 1065 628 5 0 0 0 - - -;
#X floatatom 1261 520 5 0 0 0 - - -;
#X obj 1286 384 random 10;
#X floatatom 1346 344 5 0 0 0 - - -;
#X text 1389 337 chance that a note is skipped \, if the original note
is not modified;
#X floatatom 1319 522 5 0 0 0 - - -;
#X msg 1319 488 0;
#X obj 1286 450 sel 0;
#X text 1265 98 TODO: make note stumble less frequent - for each note
\, have a % chance of stumble;
#X connect 0 0 3 0;
#X connect 1 0 0 1;
#X connect 2 0 0 0;
#X connect 3 0 4 0;
#X connect 3 0 5 0;
#X connect 4 0 3 1;
#X connect 5 0 6 0;
#X connect 6 0 55 0;
#X connect 7 0 8 0;
#X connect 8 0 9 1;
#X connect 9 0 61 0;
#X connect 9 0 74 0;
#X connect 10 0 11 0;
#X connect 11 0 12 1;
#X connect 12 0 61 0;
#X connect 12 0 74 0;
#X connect 13 0 14 0;
#X connect 14 0 15 1;
#X connect 15 0 61 0;
#X connect 15 0 74 0;
#X connect 16 0 17 0;
#X connect 17 0 18 1;
#X connect 18 0 61 0;
#X connect 18 0 74 0;
#X connect 19 0 20 0;
#X connect 20 0 21 1;
#X connect 21 0 61 0;
#X connect 21 0 74 0;
#X connect 22 0 23 0;
#X connect 23 0 24 1;
#X connect 24 0 61 0;
#X connect 24 0 74 0;
#X connect 25 0 26 0;
#X connect 26 0 27 1;
#X connect 27 0 61 0;
#X connect 27 0 74 0;
#X connect 28 0 29 0;
#X connect 29 0 30 1;
#X connect 30 0 61 0;
#X connect 30 0 74 0;
#X connect 31 0 32 0;
#X connect 32 0 33 1;
#X connect 33 0 61 0;
#X connect 33 0 74 0;
#X connect 34 0 35 0;
#X connect 35 0 36 1;
#X connect 36 0 61 0;
#X connect 36 0 74 0;
#X connect 37 0 38 0;
#X connect 38 0 39 1;
#X connect 39 0 61 0;
#X connect 39 0 74 0;
#X connect 40 0 41 0;
#X connect 41 0 42 1;
#X connect 42 0 61 0;
#X connect 42 0 74 0;
#X connect 43 0 44 0;
#X connect 44 0 45 1;
#X connect 45 0 61 0;
#X connect 45 0 74 0;
#X connect 46 0 47 0;
#X connect 47 0 48 1;
#X connect 48 0 61 0;
#X connect 48 0 74 0;
#X connect 49 0 50 0;
#X connect 50 0 51 1;
#X connect 51 0 61 0;
#X connect 51 0 74 0;
#X connect 52 0 53 0;
#X connect 53 0 54 1;
#X connect 54 0 61 0;
#X connect 54 0 74 0;
#X connect 55 0 9 0;
#X connect 55 1 12 0;
#X connect 55 2 15 0;
#X connect 55 3 18 0;
#X connect 55 4 21 0;
#X connect 55 5 24 0;
#X connect 55 6 27 0;
#X connect 55 7 30 0;
#X connect 55 8 33 0;
#X connect 55 9 36 0;
#X connect 55 10 39 0;
#X connect 55 11 42 0;
#X connect 55 12 45 0;
#X connect 55 13 48 0;
#X connect 55 14 51 0;
#X connect 55 15 54 0;
#X connect 56 0 59 0;
#X connect 57 0 58 0;
#X connect 57 0 58 1;
#X connect 59 0 64 0;
#X connect 60 0 57 1;
#X connect 61 0 63 0;
#X connect 62 0 63 1;
#X connect 63 0 60 0;
#X connect 64 0 65 0;
#X connect 65 0 57 0;
#X connect 66 0 65 1;
#X connect 69 0 56 0;
#X connect 70 0 69 1;
#X connect 71 0 72 0;
#X connect 72 0 73 0;
#X connect 74 0 85 0;
#X connect 75 0 80 0;
#X connect 75 0 81 0;
#X connect 76 0 77 0;
#X connect 77 0 79 0;
#X connect 78 0 77 1;
#X connect 79 0 87 0;
#X connect 80 0 76 0;
#X connect 81 0 83 0;
#X connect 82 0 75 0;
#X connect 83 0 90 0;
#X connect 86 0 69 0;
#X connect 87 0 93 0;
#X connect 87 1 81 1;
#X connect 88 0 98 0;
#X connect 90 0 91 0;
#X connect 91 0 84 0;
#X connect 92 0 90 1;
#X connect 93 0 88 0;
#X connect 94 0 93 1;
#X connect 96 0 90 1;
#X connect 97 0 96 0;
#X connect 98 0 92 0;
#X connect 98 1 97 0;
