#N canvas -8 -8 1920 997 12;
#X obj 50 302 mtof;
#X obj 52 857 dac~;
#X obj 51 758 *~;
#X floatatom 128 859 5 0 0 0 - - -;
#X obj 183 747 vsl 15 128 0 0.5 0 0 empty empty empty 0 -9 0 10 -258113
-1 -1 6100 1;
#X text 207 861 range: 0 to 0.5;
#N canvas 288 132 897 581 several_oscs 0;
#X obj 119 146 * 1.015;
#X obj 193 147 * 0.503;
#X obj 286 146 * 1.496;
#X obj 286 219 *~ 0.5;
#X obj 50 83 inlet;
#X text 342 146 fifth up;
#X text 126 166 detune;
#X text 203 167 oct. down;
#X text 339 224 modulates output vol.;
#X obj 507 149 * 2.01;
#X obj 507 222 *~ 0.25;
#X obj 51 388 outlet~;
#X text 562 149 oct. up;
#X obj 50 146 phasor~;
#X obj 119 187 phasor~;
#X obj 193 188 phasor~;
#X obj 286 187 phasor~;
#X obj 507 190 phasor~;
#X connect 0 0 14 0;
#X connect 1 0 15 0;
#X connect 2 0 16 0;
#X connect 3 0 11 0;
#X connect 4 0 0 0;
#X connect 4 0 1 0;
#X connect 4 0 2 0;
#X connect 4 0 9 0;
#X connect 4 0 13 0;
#X connect 9 0 17 0;
#X connect 10 0 11 0;
#X connect 13 0 11 0;
#X connect 14 0 11 0;
#X connect 15 0 11 0;
#X connect 16 0 3 0;
#X connect 17 0 10 0;
#X restore 50 372 pd several_oscs;
#N canvas 734 191 897 581 several_oscs 0;
#X obj 119 146 * 1.015;
#X obj 193 147 * 0.503;
#X obj 286 146 * 1.496;
#X obj 286 219 *~ 0.5;
#X obj 50 83 inlet;
#X text 342 146 fifth up;
#X text 126 166 detune;
#X text 203 167 oct. down;
#X text 339 224 modulates output vol.;
#X obj 507 149 * 2.01;
#X obj 507 222 *~ 0.25;
#X obj 51 388 outlet~;
#X text 562 149 oct. up;
#X obj 50 146 phasor~;
#X obj 119 187 phasor~;
#X obj 193 188 phasor~;
#X obj 286 187 phasor~;
#X obj 507 190 phasor~;
#X connect 0 0 14 0;
#X connect 1 0 15 0;
#X connect 2 0 16 0;
#X connect 3 0 11 0;
#X connect 4 0 0 0;
#X connect 4 0 1 0;
#X connect 4 0 2 0;
#X connect 4 0 9 0;
#X connect 4 0 13 0;
#X connect 9 0 17 0;
#X connect 10 0 11 0;
#X connect 13 0 11 0;
#X connect 14 0 11 0;
#X connect 15 0 11 0;
#X connect 16 0 3 0;
#X connect 17 0 10 0;
#X restore 185 372 pd several_oscs;
#X text 208 840 master volume slider;
#X obj 51 716 *~;
#N canvas 494 150 1326 799 basic_envelope 0;
#X obj 57 198 line~;
#X msg 57 159 1 5;
#X obj 110 160 pack 0 500;
#X floatatom 272 88 5 0 0 0 - - -;
#X obj 110 111 del 10;
#X obj 56 233 *~;
#X obj 56 257 *~;
#X text 194 161 reach volume [arg1] in [arg2] milliseconds;
#X text 315 88 decay;
#X text 26 159 atk;
#X text 163 111 hold;
#X obj 57 19 inlet;
#X obj 56 316 outlet~;
#X obj 272 26 inlet;
#X text 96 245 squaring the output makes the decay sound more natural
since it's turning a linear amp into a smooth exponential curve;
#X text 110 193 line object takes number inputs and creates a smooth
line between them;
#X connect 0 0 5 0;
#X connect 0 0 5 1;
#X connect 1 0 0 0;
#X connect 2 0 0 0;
#X connect 3 0 2 1;
#X connect 4 0 2 0;
#X connect 5 0 6 0;
#X connect 5 0 6 1;
#X connect 6 0 12 0;
#X connect 11 0 4 0;
#X connect 11 0 1 0;
#X connect 13 0 3 0;
#X restore 782 479 pd basic_envelope;
#X obj 782 438 bng 15 250 50 0 empty empty empty 17 7 0 10 -262144
-1 -1;
#X floatatom 905 429 5 0 0 0 - - -;
#N canvas 498 176 450 300 two_notes 0;
#X obj 105 29 inlet;
#X obj 105 53 metro 500;
#X obj 105 101 sel 0 1;
#X msg 105 152 55;
#X floatatom 105 194 5 0 0 0 - - -;
#X obj 105 217 outlet;
#X msg 152 153 67;
#X obj 105 80 tgl 15 0 empty empty empty 17 7 0 10 -262144 -1 -1 0
1;
#X connect 0 0 1 0;
#X connect 1 0 7 0;
#X connect 2 0 3 0;
#X connect 2 1 6 0;
#X connect 3 0 4 0;
#X connect 4 0 5 0;
#X connect 6 0 4 0;
#X connect 7 0 2 0;
#X restore 1047 197 pd two_notes;
#X obj 1048 141 tgl 15 0 empty empty empty 17 7 0 10 -262144 -1 -1
1 1;
#X floatatom 1176 247 5 0 0 0 - - -;
#X obj 1176 288 s notes;
#X obj 50 190 r notes;
#N canvas 807 207 764 548 many_notes 0;
#X obj 454 114 table notes;
#X msg 456 50 \; notes 0 60 67 62 68 70 58;
#X text 454 26 sends a 6-note sequence to the table;
#X floatatom 44 202 5 0 0 0 - - -;
#X obj 44 233 tabread notes;
#X floatatom 44 257 5 0 0 0 - - -;
#X text 146 234 reads the contents of table "notes";
#X text 90 202 this value corresponds to the current index of the table
;
#X obj 44 17 inlet;
#X obj 44 78 bng 15 250 50 0 empty empty empty 17 7 0 10 -262144 -1
-1;
#X text 645 59 the "0" represents the start of the list of values;
#X obj 44 117 i 0;
#X obj 44 141 + 1;
#X obj 44 165 % 6;
#X text 78 127 loops through values 0-6 linearly every time it is triggered
and then resets to 0... research further to see how the logic works
, f 48;
#X obj 44 280 outlet;
#X obj 44 41 metro 200;
#X connect 3 0 4 0;
#X connect 4 0 5 0;
#X connect 5 0 15 0;
#X connect 8 0 16 0;
#X connect 9 0 11 0;
#X connect 11 0 12 0;
#X connect 12 0 13 0;
#X connect 13 0 11 1;
#X connect 13 0 3 0;
#X connect 16 0 9 0;
#X restore 1176 198 pd many_notes;
#X obj 186 344 * 1.005;
#X msg 1177 72 \; notes 0 60 67 62 68 70 58;
#X msg 1177 117 \; notes 0 58 55 58 56 65 61;
#X text 1377 99 these send different MIDI values to the table "notes"
which is used by pd many_notes;
#X text 43 591 resonant low-pass filter, f 17;
#X obj 49 570 vcf~ 1, f 19;
#X obj 50 258 t f b b, f 105;
#X text 951 430 amp decay time;
#N canvas 494 150 1326 799 basic_envelope 0;
#X obj 57 198 line~;
#X msg 57 159 1 5;
#X obj 110 160 pack 0 500;
#X floatatom 272 88 5 0 0 0 - - -;
#X obj 110 111 del 10;
#X obj 56 233 *~;
#X obj 56 257 *~;
#X text 194 161 reach volume [arg1] in [arg2] milliseconds;
#X text 315 88 decay;
#X text 26 159 atk;
#X text 163 111 hold;
#X obj 57 19 inlet;
#X obj 56 316 outlet~;
#X obj 272 26 inlet;
#X text 96 245 squaring the output makes the decay sound more natural
since it's turning a linear amp into a smooth exponential curve;
#X text 110 193 line object takes number inputs and creates a smooth
line between them;
#X connect 0 0 5 0;
#X connect 0 0 5 1;
#X connect 1 0 0 0;
#X connect 2 0 0 0;
#X connect 3 0 2 1;
#X connect 4 0 2 0;
#X connect 5 0 6 0;
#X connect 5 0 6 1;
#X connect 6 0 12 0;
#X connect 11 0 4 0;
#X connect 11 0 1 0;
#X connect 13 0 3 0;
#X restore 311 404 pd basic_envelope;
#X obj 311 363 bng 15 250 50 0 empty empty empty 17 7 0 10 -262144
-1 -1;
#X floatatom 427 371 5 0 0 0 - - -;
#X text 471 371 filter decay time;
#X obj 311 428 *~ 5000;
#X floatatom 214 533 5 0 0 0 - - -;
#X text 256 533 resonance;
#X text 48 151 acid-filters: using the basic envelope created earlier
to modulate the vcf~ resonant low-pass filter;
#X text 1020 118 PLAY BUTTON;
#X text 307 448 the original vol. envelope ranges from 0 to 1... will
not work for the low-pass filter which ranges from 20 to 20 \, 0;
#X connect 0 0 6 0;
#X connect 0 0 19 0;
#X connect 2 0 1 0;
#X connect 2 0 1 1;
#X connect 3 0 2 1;
#X connect 4 0 3 0;
#X connect 6 0 24 0;
#X connect 7 0 24 0;
#X connect 9 0 2 0;
#X connect 10 0 9 1;
#X connect 11 0 10 0;
#X connect 12 0 10 1;
#X connect 14 0 18 0;
#X connect 15 0 16 0;
#X connect 17 0 25 0;
#X connect 18 0 15 0;
#X connect 19 0 7 0;
#X connect 24 1 9 0;
#X connect 25 0 0 0;
#X connect 25 1 28 0;
#X connect 25 2 11 0;
#X connect 27 0 31 0;
#X connect 28 0 27 0;
#X connect 29 0 27 1;
#X connect 31 0 24 1;
#X connect 32 0 24 2;
