#N canvas 24 4 1920 997 12;
#X obj 829 701 *~ 0.25;
#X obj 830 643 *~ 535899, f 25;
#X floatatom 830 171 10 0 0 0 - - -;
#X floatatom 1002 618 5 0 0 0 - - -;
#X obj 1068 338 loadbang;
#X obj 1068 373 samplerate~;
#X obj 1160 341 bng 15 250 50 0 empty empty empty 17 7 0 10 -262144
-1 -1;
#X text 828 88 sample playback - plays once;
#X obj 830 522 line~;
#X text 877 514 using the line obj instead of phasor~ to progress through
sample once;
#X obj 830 415 expr 1000 * $f1 / $f2;
#X text 993 415 duration / sample_rate in seconds (ms * 1000);
#X msg 830 464 0 \, 1 \$1;
#X obj 830 224 f;
#X obj 764 173 bng 15 250 50 0 empty empty empty 17 7 0 10 -262144
-1 -1;
#X text 726 170 play;
#X text 1072 290 comment;
#X obj 830 356 / 1;
#X obj 829 734 outlet~;
#X obj 902 255 inlet;
#X obj 764 121 inlet;
#X text 900 219 playback rate input as number | 1 is og speed \, 0.5
is half speed \, etc.;
#X obj 829 677 tabread4~ \$2-sample_1;
#X obj 1002 594 r \$2-file_duration;
#X obj 830 147 r \$2-file_duration;
#X connect 0 0 18 0;
#X connect 1 0 22 0;
#X connect 2 0 13 0;
#X connect 3 0 1 1;
#X connect 4 0 5 0;
#X connect 5 0 10 1;
#X connect 6 0 5 0;
#X connect 8 0 1 0;
#X connect 10 0 12 0;
#X connect 12 0 8 0;
#X connect 13 0 17 0;
#X connect 14 0 13 0;
#X connect 17 0 10 0;
#X connect 19 0 17 1;
#X connect 20 0 14 0;
#X connect 22 0 0 0;
#X connect 23 0 3 0;
#X connect 24 0 2 0;
