#N canvas -8 -8 1920 997 12;
#X obj 45 88 bng 15 250 50 0 empty empty empty 17 7 0 10 -262144 -1
-1;
#X obj 45 108 obj.samp;
#X obj 44 179 dac~;
#X obj 71 69 bng 15 250 50 0 empty empty empty 17 7 0 10 -262144 -1
-1;
#X floatatom 110 81 5 0 0 0 - - -;
#X text 168 76 1st inlet: load sample 2nd inlet: play 3rd inlet: adjust
playback speed;
#X obj 598 205 dac~;
#X text 64 25 SINGLE-PLAYBACK SAMPLER:;
#X text 647 50 LOOPING SAMPLER:;
#X obj 599 134 obj.looping-sampler;
#X floatatom 729 104 5 0 0 0 - - -;
#X msg 624 100 0;
#X msg 521 76 C:/Users/Ibrahim/Desktop/Projects/DILLA_INSPIRED_79Bpm.wav
;
#X msg 667 100 0.5;
#X text 999 100 1st inlet: load sample by directory 2nd inlet: file
position 3rd inlet: adjust playback speed;
#X obj 682 430 bng 15 250 50 0 empty empty empty 17 7 0 10 -262144
-1 -1;
#X obj 620 537 dac~;
#X obj 621 466 polyphonic-sampler;
#X msg 537 408 C:/Users/Ibrahim/Desktop/Projects/DILLA_INSPIRED_79Bpm.wav
;
#X floatatom 744 430 5 0 0 0 - - -;
#X text 614 309 POLYPHONIC SAMPLER (8 VOICES):;
#X text 948 452 1st inlet: load sample by directory 2nd inlet: play
3rd inlet: adjust playback speed;
#X connect 0 0 1 0;
#X connect 1 0 2 0;
#X connect 1 0 2 1;
#X connect 3 0 1 1;
#X connect 4 0 1 2;
#X connect 9 0 6 0;
#X connect 9 0 6 1;
#X connect 10 0 9 2;
#X connect 11 0 9 1;
#X connect 12 0 9 0;
#X connect 13 0 9 1;
#X connect 15 0 17 1;
#X connect 17 0 16 0;
#X connect 17 0 16 1;
#X connect 18 0 17 0;
#X connect 19 0 17 2;
