#N canvas 609 116 982 739 12;
#X obj 50 194 mtof;
#N canvas 288 132 897 581 several_oscs 1;
#X obj 50 146 osc~;
#X obj 119 187 osc~;
#X obj 193 188 osc~;
#X obj 286 187 osc~;
#X obj 193 147 * 0.503;
#X obj 286 146 * 1.496;
#X obj 50 83 inlet;
#X text 342 146 fifth up;
#X text 126 166 detune;
#X text 203 167 oct. down;
#X text 339 224 modulates output vol.;
#X obj 507 190 osc~;
#X obj 507 149 * 2.01;
#X obj 507 222 *~ 0.25;
#X obj 51 388 outlet~;
#X text 562 149 oct. up;
#X obj 286 219 *~ 0.35;
#X obj 119 146 * 1.015;
#X connect 0 0 14 0;
#X connect 1 0 14 0;
#X connect 2 0 14 0;
#X connect 3 0 16 0;
#X connect 4 0 2 0;
#X connect 5 0 3 0;
#X connect 6 0 0 0;
#X connect 6 0 4 0;
#X connect 6 0 5 0;
#X connect 6 0 12 0;
#X connect 6 0 17 0;
#X connect 11 0 13 0;
#X connect 12 0 11 0;
#X connect 13 0 14 0;
#X connect 16 0 14 0;
#X connect 17 0 1 0;
#X restore 50 264 pd several_oscs;
#X obj 51 571 *~;
#N canvas 494 150 1326 799 basic_envelope 0;
#X obj 57 198 line~;
#X msg 57 159 1 5;
#X obj 110 160 pack 0 500;
#X floatatom 272 88 5 0 0 0 - - -;
#X obj 110 111 del 10;
#X obj 56 233 *~;
#X obj 56 257 *~;
#X text 194 161 reach volume [arg1] in [arg2] milliseconds;
#X text 315 88 decay;
#X text 26 159 atk;
#X text 163 111 hold;
#X obj 57 19 inlet;
#X obj 56 316 outlet~;
#X obj 272 26 inlet;
#X text 96 245 squaring the output makes the decay sound more natural
since it's turning a linear amp into a smooth exponential curve;
#X text 110 193 line object takes number inputs and creates a smooth
line between them;
#X connect 0 0 5 0;
#X connect 0 0 5 1;
#X connect 1 0 0 0;
#X connect 2 0 0 0;
#X connect 3 0 2 1;
#X connect 4 0 2 0;
#X connect 5 0 6 0;
#X connect 5 0 6 1;
#X connect 6 0 12 0;
#X connect 11 0 4 0;
#X connect 11 0 1 0;
#X connect 13 0 3 0;
#X restore 191 388 pd basic_envelope;
#X obj 191 222 bng 15 250 50 0 empty empty empty 17 7 0 10 -262144
-1 -1;
#X floatatom 273 342 5 0 0 0 - - -;
#X text 360 339 decay time;
#X obj 50 149 inlet;
#X obj 51 595 outlet~;
#X obj 308 276 loadbang;
#X msg 308 300 2000;
#X obj 234 275 r decay;
#X connect 0 0 1 0;
#X connect 1 0 2 0;
#X connect 2 0 8 0;
#X connect 3 0 2 1;
#X connect 4 0 3 0;
#X connect 5 0 3 1;
#X connect 7 0 0 0;
#X connect 7 0 4 0;
#X connect 9 0 10 0;
#X connect 10 0 5 0;
#X connect 11 0 5 0;
