#N canvas -8 -8 1920 997 12;
#X obj 53 65 hsl 128 15 0 127 0 0 empty empty empty -2 -8 0 10 -262144
-1 -1 4800 1;
#X obj 50 105 mtof;
#X obj 51 592 dac~;
#X obj 50 493 *~;
#X floatatom 126 533 5 0 0 0 - - -;
#X text 187 68 frequency slider;
#X obj 218 396 vsl 15 128 0 0.5 0 0 empty empty empty 0 -9 0 10 -258113
-1 -1 0 1;
#X text 242 510 range: 0 to 0.5;
#X text 48 28 beyond-sine-tones: several detuned oscillators create
a richer sound than one oscillator;
#N canvas 288 132 897 581 several_oscs 0;
#X obj 50 146 osc~;
#X obj 119 146 * 1.015;
#X obj 119 187 osc~;
#X obj 193 188 osc~;
#X obj 286 187 osc~;
#X obj 193 147 * 0.503;
#X obj 286 146 * 1.496;
#X obj 286 219 *~ 0.5;
#X obj 50 83 inlet;
#X text 342 146 fifth up;
#X text 126 166 detune;
#X text 203 167 oct. down;
#X text 339 224 modulates output vol.;
#X obj 507 190 osc~;
#X obj 507 149 * 2.01;
#X obj 507 222 *~ 0.25;
#X obj 51 388 outlet~;
#X text 562 149 oct. up;
#X connect 0 0 16 0;
#X connect 1 0 2 0;
#X connect 2 0 16 0;
#X connect 3 0 16 0;
#X connect 4 0 7 0;
#X connect 5 0 3 0;
#X connect 6 0 4 0;
#X connect 7 0 16 0;
#X connect 8 0 0 0;
#X connect 8 0 1 0;
#X connect 8 0 5 0;
#X connect 8 0 6 0;
#X connect 8 0 14 0;
#X connect 13 0 15 0;
#X connect 14 0 13 0;
#X connect 15 0 16 0;
#X restore 50 175 pd several_oscs;
#N canvas 288 132 897 581 several_oscs 0;
#X obj 50 146 osc~;
#X obj 119 146 * 1.015;
#X obj 119 187 osc~;
#X obj 193 188 osc~;
#X obj 286 187 osc~;
#X obj 193 147 * 0.503;
#X obj 286 146 * 1.496;
#X obj 286 219 *~ 0.5;
#X obj 50 83 inlet;
#X text 342 146 fifth up;
#X text 126 166 detune;
#X text 203 167 oct. down;
#X text 339 224 modulates output vol.;
#X obj 507 190 osc~;
#X obj 507 149 * 2.01;
#X obj 507 222 *~ 0.25;
#X obj 51 388 outlet~;
#X text 562 149 oct. up;
#X connect 0 0 16 0;
#X connect 1 0 2 0;
#X connect 2 0 16 0;
#X connect 3 0 16 0;
#X connect 4 0 7 0;
#X connect 5 0 3 0;
#X connect 6 0 4 0;
#X connect 7 0 16 0;
#X connect 8 0 0 0;
#X connect 8 0 1 0;
#X connect 8 0 5 0;
#X connect 8 0 6 0;
#X connect 8 0 14 0;
#X connect 13 0 15 0;
#X connect 14 0 13 0;
#X connect 15 0 16 0;
#X restore 185 175 pd several_oscs;
#X obj 185 147 * 2;
#X text 305 169 this subpatch can be duplicated and multiplied to create
denser tones using additive synthesis.;
#X text 243 489 master volume slider;
#X connect 0 0 1 0;
#X connect 1 0 9 0;
#X connect 1 0 11 0;
#X connect 3 0 2 0;
#X connect 3 0 2 1;
#X connect 4 0 3 1;
#X connect 6 0 4 0;
#X connect 9 0 3 0;
#X connect 10 0 3 0;
#X connect 11 0 10 0;
