#N canvas -8 -8 1920 997 12;
#X obj 89 471 soundfiler;
#X floatatom 89 495 10 0 0 3 length_of_sample_in_samples - -;
#X msg 43 242 read -resize \$1 sample_1;
#X text 229 235 sends a message to soundfiler to read a file and resize
the array to match the sample length;
#X obj 43 192 openpanel;
#X obj 43 156 bng 15 250 50 0 empty empty empty 17 7 0 10 -262144 -1
-1;
#X obj 43 472 print;
#X obj 722 449 *~ 0.25;
#X obj 722 425 tabread4~ sample_1;
#X obj 723 314 phasor~ 0.1;
#X obj 723 391 *~ 535899, f 25;
#X obj 90 541 s \$0-file_duration;
#X obj 723 85 r \$0-file_duration;
#X floatatom 723 109 5 0 0 0 - - -;
#X obj 723 155 expr $f2 / $f1;
#X obj 895 342 r \$0-file_duration;
#X floatatom 895 366 5 0 0 0 - - -;
#X obj 872 61 loadbang;
#X obj 872 96 samplerate~;
#X obj 964 64 bng 15 250 50 0 empty empty empty 17 7 0 10 -262144 -1
-1;
#X text 812 314 changes playback rate | range: 0-1;
#X obj 723 261 * 1;
#X obj 795 227 t b f;
#X floatatom 795 196 5 0 0 1 playback_rate - -;
#X text 938 196 1 = original speed \, 0.5 = half speed \, etc.;
#X text 52 24 all of this loads the sample;
#X text 721 26 sample playback - loops continuously;
#X obj 1378 678 *~ 0.25;
#X obj 1378 654 tabread4~ sample_1;
#X obj 1379 620 *~ 535899, f 25;
#X obj 1379 84 r \$0-file_duration;
#X floatatom 1379 108 10 0 0 0 - - -;
#X obj 1551 571 r \$0-file_duration;
#X floatatom 1551 595 5 0 0 0 - - -;
#X obj 1617 315 loadbang;
#X obj 1617 350 samplerate~;
#X obj 1709 318 bng 15 250 50 0 empty empty empty 17 7 0 10 -262144
-1 -1;
#X text 1377 25 sample playback - plays once;
#X obj 1379 499 line~;
#X text 1426 491 using the line obj instead of phasor~ to progress
through sample once;
#X obj 1379 392 expr 1000 * $f1 / $f2;
#X text 1542 392 duration / sample_rate in seconds (ms * 1000);
#X msg 1379 441 0 \, 1 \$1;
#X obj 1379 161 f;
#X obj 1313 110 bng 15 250 50 0 empty empty empty 17 7 0 10 -262144
-1 -1;
#X text 1306 89 play;
#X floatatom 1451 228 5 0 0 1 playback_rate - -;
#X text 1621 227;
#X obj 1379 293 / 1;
#X obj 1378 711 outlet~;
#X obj 128 147 array define \$0-sample_1;
#X obj 43 290 list append \$0-sample_1;
#X text 218 290 adds array name to any read messages coming in;
#X obj 89 368 route list;
#X text 171 368 removes the word "list" from outgoing message to soundfiler
;
#X text 831 155 sample rate / file duration;
#X connect 0 0 1 0;
#X connect 1 0 11 0;
#X connect 2 0 51 0;
#X connect 4 0 2 0;
#X connect 5 0 4 0;
#X connect 8 0 7 0;
#X connect 9 0 10 0;
#X connect 10 0 8 0;
#X connect 12 0 13 0;
#X connect 13 0 14 0;
#X connect 14 0 21 0;
#X connect 15 0 16 0;
#X connect 16 0 10 1;
#X connect 17 0 18 0;
#X connect 18 0 14 1;
#X connect 19 0 18 0;
#X connect 21 0 9 0;
#X connect 22 0 21 0;
#X connect 22 1 21 1;
#X connect 23 0 22 0;
#X connect 27 0 49 0;
#X connect 28 0 27 0;
#X connect 29 0 28 0;
#X connect 30 0 31 0;
#X connect 31 0 43 0;
#X connect 32 0 33 0;
#X connect 33 0 29 1;
#X connect 34 0 35 0;
#X connect 35 0 40 1;
#X connect 36 0 35 0;
#X connect 38 0 29 0;
#X connect 40 0 42 0;
#X connect 42 0 38 0;
#X connect 43 0 48 0;
#X connect 44 0 43 0;
#X connect 46 0 48 1;
#X connect 48 0 40 0;
#X connect 51 0 6 0;
#X connect 51 0 53 0;
#X connect 53 0 0 0;
