#N canvas 771 195 674 410 10;
#N canvas 0 0 450 300 (subpatch) 0;
#X array tab1 5 float 3 black black;
#A 0 57.2745 32.3725 107.078 64.7451 44.8235;
#X coords 0 127 5 0 200 140 1;
#X restore 438 -56 graph;
#X obj 27 51 pack f f f f f, f 32;
#X obj 27 -56 vsl 15 52 0 127 0 1 empty empty empty 0 -9 0 10 -262144
-1 -1 700 1;
#X obj 67 -56 vsl 15 52 0 127 0 1 empty empty empty 0 -9 0 10 -262144
-1 -1 1300 1;
#X obj 67 5 t b f;
#X obj 107 -56 vsl 15 52 0 127 0 1 empty empty empty 0 -9 0 10 -262144
-1 -1 600 1;
#X obj 107 5 t b f;
#X obj 147 -56 vsl 15 52 0 127 0 1 empty empty empty 0 -9 0 10 -262144
-1 -1 1300 1;
#X obj 147 5 t b f;
#X obj 187 -56 vsl 15 52 0 127 0 1 empty empty empty 0 -9 0 10 -262144
-1 -1 800 1;
#X obj 187 5 t b f;
#X msg 27 215 0 57.2745 32.3725 107.078 64.7451 44.8235;
#X msg 111 189 set 0 \$1 \$2 \$3 \$4 \$5;
#X obj 27 237 s tab1;
#X obj 84 168 t b a;
#X obj 254 -59 vradio 15 1 0 2 state empty empty 0 -8 0 10 -262144
-1 -1 0;
#X obj 255 -17 bng 15 250 50 0 load empty empty 17 7 0 10 -262144 -1
-1;
#X text 274 -19 load selected state;
#X obj 114 91 r state;
#X obj 27 143 route bang;
#X obj 27 121 demultiplex 0 1;
#X msg 297 215 0 17.4314 32.3725 14.9412 32.3725 19.9216;
#X msg 381 189 set 0 \$1 \$2 \$3 \$4 \$5;
#X obj 297 237 s tab1;
#X obj 354 168 t b a;
#X obj 297 143 route bang;
#X obj 45 91 r load;
#X text 273 -62 state A;
#X text 273 -47 state B;
#X connect 1 0 20 0;
#X connect 2 0 1 0;
#X connect 3 0 4 0;
#X connect 4 0 1 0;
#X connect 4 1 1 1;
#X connect 5 0 6 0;
#X connect 6 0 1 0;
#X connect 6 1 1 2;
#X connect 7 0 8 0;
#X connect 8 0 1 0;
#X connect 8 1 1 3;
#X connect 9 0 10 0;
#X connect 10 0 1 0;
#X connect 10 1 1 4;
#X connect 11 0 13 0;
#X connect 12 0 11 0;
#X connect 14 0 11 0;
#X connect 14 1 12 0;
#X connect 18 0 20 1;
#X connect 19 0 11 0;
#X connect 19 1 14 0;
#X connect 20 0 19 0;
#X connect 20 1 25 0;
#X connect 21 0 23 0;
#X connect 22 0 21 0;
#X connect 24 0 21 0;
#X connect 24 1 22 0;
#X connect 25 0 21 0;
#X connect 25 1 24 0;
#X connect 26 0 20 0;
